<?xml version="1.0"?>
<svg width="512" height="512" xmlns="http://www.w3.org/2000/svg" xmlns:svg="http://www.w3.org/2000/svg" version="1.1" xml:space="preserve">
 <g class="layer">
  <title>Layer 1</title>
  <path d="m457.1,311.79l-119.97,0l-41.86,-62.6c-14.79,-22.12 -39.5,-35.32 -66.1,-35.32l-119.16,0c-60.66,0 -110.01,49.35 -110.01,110.01l0,103.09c0,9.53 7.73,17.26 17.26,17.26l477.48,0c9.53,0 17.26,-7.72 17.26,-17.26l0,-60.27c0,-30.28 -24.63,-54.91 -54.9,-54.91z" fill="#BA2B11" id="svg_1"/>
  <path d="m250.25,216.7c-6.78,-1.86 -13.86,-2.83 -21.08,-2.83l-119.16,0c-60.66,0 -110.01,49.35 -110.01,110.01l0,103.09c0,9.53 7.73,17.26 17.26,17.26l232.99,0l0,-227.53z" fill="#E64122" id="svg_2"/>
  <path d="m272.05,394.34l-22.44,0c-9.53,0 -17.26,-7.73 -17.26,-17.26c0,-9.53 7.73,-17.26 17.26,-17.26l22.44,0c9.53,0 17.25,7.73 17.25,17.26c0,9.53 -7.72,17.26 -17.25,17.26z" fill="#212A2D" id="svg_3"/>
  <path d="m260.83,394.34l-11.22,0c-9.53,0 -17.26,-7.73 -17.26,-17.26c0,-9.53 7.73,-17.26 17.26,-17.26l11.22,0l0,34.52z" fill="#2E373A" id="svg_4"/>
  <path d="m424.98,500.13c-31.39,0 -56.92,-25.54 -56.92,-56.93s25.53,-56.93 56.92,-56.93s56.93,25.54 56.93,56.93s-25.54,56.93 -56.93,56.93z" fill="#212A2D" id="svg_5"/>
  <path d="m424.98,500.13c-31.39,0 -56.92,-25.54 -56.92,-56.93s25.53,-56.93 56.92,-56.93l0,113.86z" fill="#2E373A" id="svg_6"/>
  <circle cx="424.99" cy="443.2" fill="#A2B3BF" id="svg_7" r="22.94"/>
  <path d="m424.98,466.14c-12.67,0 -22.94,-10.27 -22.94,-22.94c0,-12.67 10.27,-22.94 22.94,-22.94l0,45.88z" fill="#C9D2D9" id="svg_8"/>
  <path d="m107.62,500.13c-31.39,0 -56.92,-25.54 -56.92,-56.93s25.53,-56.93 56.92,-56.93s56.93,25.54 56.93,56.93s-25.54,56.93 -56.93,56.93z" fill="#212A2D" id="svg_9"/>
  <path d="m107.62,500.13c-31.39,0 -56.92,-25.54 -56.92,-56.93s25.53,-56.93 56.92,-56.93l0,113.86z" fill="#2E373A" id="svg_10"/>
  <circle cx="107.63" cy="443.2" fill="#A2B3BF" id="svg_11" r="22.94"/>
  <path d="m107.62,466.14c-12.67,0 -22.94,-10.27 -22.94,-22.94c0,-12.67 10.27,-22.94 22.94,-22.94c0,0 0,45.88 0,45.88z" fill="#C9D2D9" id="svg_12"/>
  <path d="m0.67,311.79c6.03,-54.99 52.76,-97.92 109.34,-97.92l119.16,0c26.6,0 51.31,13.21 66.1,35.32l41.86,62.6l-336.46,0z" fill="#BDDEFF" id="svg_13"/>
  <path d="m0.67,311.79c6.03,-54.99 52.76,-97.92 109.34,-97.92l119.16,0c7.22,0 14.3,0.97 21.08,2.83l0,95.1l-249.58,0l0,-0.01z" fill="#D7EBFF" id="svg_14"/>
  <path d="m0.67,311.79c6.03,-54.99 52.76,-97.92 109.34,-97.92l104.57,0l0,97.92l-213.91,0z" fill="#128CB3" id="svg_15"/>
  <path d="m0.67,311.79c5.95,-54.21 51.46,-96.71 106.95,-97.89l0,97.89l-106.95,0z" fill="#34B2D9" id="svg_16"/>
 </g>
</svg>