<?xml version="1.0"?>
<svg width="32" height="32" xmlns="http://www.w3.org/2000/svg" xmlns:svg="http://www.w3.org/2000/svg" enable-background="new 0 0 32 32" version="1.1" xml:space="preserve">
 <g class="layer">
  <title>Layer 1</title>
  <g id="Energy20"/>
  <g id="Energy19"/>
  <g id="Energy18"/>
  <g id="Energy17"/>
  <g id="Energy16"/>
  <g id="Energy15"/>
  <g id="Energy14"/>
  <g id="Energy13"/>
  <g id="Energy12"/>
  <g id="Energy11"/>
  <g id="Energy10"/>
  <g id="Energy09"/>
  <g id="Energy08"/>
  <g id="Energy07"/>
  <g id="Energy06"/>
  <g id="Energy05"/>
  <g id="Energy04"/>
  <g id="Energy03"/>
  <g id="Energy02">
   <g id="svg_1">
    <path d="m26.13,18.49l-2.96,2.42l0.38,3.81c0.02,0.21 -0.05,0.41 -0.19,0.56c-0.15,0.14 -0.35,0.21 -0.56,0.19l-3.81,-0.38l-2.42,2.96c-0.13,0.16 -0.32,0.26 -0.53,0.26s-0.4,-0.1 -0.53,-0.26l-2.42,-2.96l-3.81,0.38c-0.21,0.02 -0.41,-0.05 -0.56,-0.19c-0.14,-0.15 -0.21,-0.35 -0.19,-0.56l0.38,-3.81l-2.96,-2.42c-0.16,-0.13 -0.26,-0.32 -0.26,-0.53s0.1,-0.4 0.26,-0.53l2.96,-2.42l-0.38,-3.81c-0.02,-0.21 0.05,-0.41 0.19,-0.56c0.15,-0.14 0.35,-0.22 0.56,-0.19l3.81,0.38l2.42,-2.96c0.26,-0.32 0.81,-0.32 1.06,0l2.42,2.96l3.81,-0.38c0.21,-0.03 0.41,0.05 0.56,0.19c0.14,0.15 0.21,0.35 0.19,0.56l-0.38,3.81l2.96,2.42c0.16,0.13 0.26,0.32 0.26,0.53s-0.1,0.4 -0.26,0.53z" fill="#FFB841" id="svg_2"/>
   </g>
   <g id="svg_3">
    <path d="m20.87,17.96c0,2.66 -2.17,4.83 -4.83,4.83s-4.83,-2.17 -4.83,-4.83s2.17,-4.83 4.83,-4.83s4.83,2.17 4.83,4.83z" fill="#EB8235" id="svg_4"/>
   </g>
  </g>
  <g id="Energy01"/>
 </g>
</svg>