<?xml version="1.0"?>
<svg width="511.999" height="511.999" xmlns="http://www.w3.org/2000/svg" xmlns:svg="http://www.w3.org/2000/svg" version="1.1" xml:space="preserve">
 <g class="layer">
  <title>Layer 1</title>
  <path d="m506.84,382c-19.29,-30.95 -52.58,-49.43 -89.05,-49.43l-293.97,0l-46.85,-66.48c-3.03,-4.3 -7.96,-6.86 -13.23,-6.86l-31.85,0c-8.94,0 -16.18,7.25 -16.18,16.18l0,55.02c0,14.36 3.23,28.81 9.34,41.8c0.62,1.31 1.41,2.54 2.35,3.64l9.96,11.63c25.42,29.69 62.41,46.71 101.48,46.71l339.01,0c12.4,0 23.84,-6.73 29.86,-17.57c6.02,-10.84 5.68,-24.11 -0.87,-34.64z" fill="#BA2B11" id="svg_1"/>
  <path d="m258.47,332.57l-134.65,0l-46.85,-66.48c-3.03,-4.3 -7.96,-6.86 -13.23,-6.86l-31.85,0c-8.94,0 -16.18,7.25 -16.18,16.18l0,55.02c0,14.36 3.23,28.81 9.34,41.8c0.62,1.31 1.41,2.54 2.35,3.64l9.96,11.63c25.42,29.69 62.41,46.71 101.48,46.71l119.63,0l0,-101.64z" fill="#E64122" id="svg_2"/>
  <path d="m337.64,385.93l-102.24,0c-21.74,0 -39.43,17.68 -39.43,39.42c0,21.74 17.69,39.42 39.43,39.42l102.25,0c21.73,0 39.42,-17.69 39.42,-39.42c0,-21.74 -17.69,-39.42 -39.43,-39.42z" fill="#F9AA1A" id="svg_3"/>
  <path d="m258.47,385.93l-23.07,0c-21.74,0 -39.43,17.68 -39.43,39.42c0,21.74 17.69,39.42 39.43,39.42l23.07,0l0,-78.84z" fill="#FFBE24" id="svg_4"/>
  <path d="m235.4,385.93c-21.74,0 -39.43,17.68 -39.43,39.42c0,21.74 17.69,39.42 39.43,39.42l0,-78.84z" fill="#2E373A" id="svg_5"/>
  <path d="m47.71,362.9l-31.53,0c-8.93,0 -16.18,-7.24 -16.18,-16.18c0,-8.94 7.25,-16.19 16.18,-16.19l31.53,0c8.93,0 16.18,7.25 16.18,16.19c0,8.94 -7.25,16.18 -16.18,16.18z" fill="#F9AA1A" id="svg_6"/>
  <path d="m31.95,362.9l-15.77,0c-8.93,0 -16.18,-7.24 -16.18,-16.18c0,-8.94 7.25,-16.19 16.18,-16.19l15.77,0l0,32.37z" fill="#FFBE24" id="svg_7"/>
  <path d="m441.9,367.39c0,8.94 7.24,16.19 16.18,16.19l34.53,0c4.69,0 8.9,-2.01 11.86,-5.2c-7.36,-10.8 -16.47,-19.96 -26.85,-27.17l-19.54,0c-8.93,0 -16.18,7.25 -16.18,16.18z" fill="#BDDEFF" id="svg_8"/>
  <path d="m441.9,367.39c0,8.94 7.24,16.19 16.18,16.19l9.17,0l0,-32.37l-9.17,0c-8.93,0 -16.18,7.25 -16.18,16.18z" fill="#D7EBFF" id="svg_9"/>
 </g>
</svg>