<?xml version="1.0"?>
<svg width="512" height="512" xmlns="http://www.w3.org/2000/svg" xmlns:svg="http://www.w3.org/2000/svg" version="1.1" xml:space="preserve">
 <g class="layer">
  <title>Layer 1</title>
  <path d="m420.59,500.1c-50.41,0 -91.41,-41 -91.41,-91.41s41.01,-91.41 91.41,-91.41s91.41,41.01 91.41,91.41s-41.01,91.41 -91.41,91.41z" fill="#212A2D" id="svg_1"/>
  <path d="m420.59,500.1c-50.41,0 -91.41,-41 -91.41,-91.41s41.01,-91.41 91.41,-91.41l0,182.82l0,0z" fill="#2E373A" id="svg_2"/>
  <circle cx="420.59" cy="408.69" fill="#BDDEFF" id="svg_3" r="53.84"/>
  <path d="m420.59,462.53c-29.74,0 -53.84,-24.1 -53.84,-53.84c0,-29.73 24.1,-53.84 53.84,-53.84l0,107.68z" fill="#D7EBFF" id="svg_4"/>
  <path d="m91.41,500.1c-50.4,0 -91.41,-41 -91.41,-91.41s41.01,-91.41 91.41,-91.41s91.41,41.01 91.41,91.41s-41,91.41 -91.41,91.41z" fill="#212A2D" id="svg_5"/>
  <path d="m91.41,500.1c-50.4,0 -91.41,-41 -91.41,-91.41s41.01,-91.41 91.41,-91.41l0,182.82z" fill="#2E373A" id="svg_6"/>
  <path d="m402.2,289.74c-8.04,0 -15.41,-5.31 -17.69,-13.43l-7.21,-25.73c-2.74,-9.77 2.97,-19.91 12.74,-22.65c9.78,-2.74 19.91,2.96 22.65,12.73l7.21,25.74c2.74,9.77 -2.96,19.91 -12.74,22.65c-1.65,0.47 -3.32,0.69 -4.96,0.69z" fill="#FFBE24" id="svg_7"/>
  <path d="m290.3,296.89c-7.97,0 -15.31,-5.22 -17.64,-13.25c-2.84,-9.75 2.77,-19.95 12.51,-22.78l19.6,-5.7c9.74,-2.84 19.95,2.77 22.78,12.51c2.84,9.75 -2.77,19.95 -12.51,22.78l-19.6,5.7c-1.72,0.5 -3.45,0.74 -5.14,0.74z" fill="#A2B3BF" id="svg_8"/>
  <path d="m290.3,296.89c-7.97,0 -15.31,-5.22 -17.64,-13.25c-2.84,-9.75 2.77,-19.95 12.51,-22.78l14.94,-4.34l0,38.27l-4.67,1.36c-1.72,0.5 -3.45,0.74 -5.14,0.74z" fill="#C9D2D9" id="svg_9"/>
  <circle cx="91.41" cy="408.69" fill="#BDDEFF" id="svg_10" r="53.84"/>
  <path d="m91.41,462.53c-29.73,0 -53.84,-24.1 -53.84,-53.84c0,-29.73 24.11,-53.84 53.84,-53.84l0,107.68z" fill="#D7EBFF" id="svg_11"/>
  <path d="m91.41,427.07c-7.47,0 -14.49,-4.59 -17.24,-12.01c-3.51,-9.51 1.35,-20.08 10.87,-23.6l70.41,-26.03c9.51,-3.52 20.09,1.35 23.61,10.87c3.52,9.52 -1.35,20.09 -10.87,23.61l-70.41,26.02c-2.1,0.78 -4.25,1.14 -6.37,1.14z" fill="#A2B3BF" id="svg_12"/>
  <path d="m91.41,427.07c-7.47,0 -14.49,-4.59 -17.24,-12.01c-3.51,-9.51 1.35,-20.08 10.87,-23.6l35.77,-13.23l0,39.19l-23.03,8.51c-2.1,0.78 -4.25,1.14 -6.37,1.14z" fill="#C9D2D9" id="svg_13"/>
  <path d="m347.55,266.33c-10.15,0 -18.37,8.23 -18.37,18.37l0,0.81l-165.09,7.21l-11.91,-11.91c-7.17,-7.18 -18.81,-7.18 -25.99,0c-7.17,7.17 -7.17,18.81 0,25.99l46.29,46.28l-24.71,29.27c-4.55,5.4 -5.61,12.92 -2.73,19.37c0.43,0.96 4.41,9.69 10.91,18.66c11.05,15.27 23.39,23.01 36.67,23.01l102.35,0c18.95,0 36.77,-7.39 50.17,-20.79c13.41,-13.4 20.79,-31.22 20.79,-50.17l0,-87.72c0,-10.16 -8.23,-18.38 -18.38,-18.38z" fill="#BA2B11" id="svg_14"/>
  <path d="m256,296.89l-91.91,-4.18l-11.91,-11.9c-7.17,-7.18 -18.81,-7.18 -25.99,0c-7.17,7.17 -7.17,18.81 0,25.99l46.29,46.28l-24.71,29.27c-4.55,5.4 -5.61,12.92 -2.73,19.36c0.43,0.97 4.41,9.7 10.91,18.67c11.05,15.27 23.39,23 36.67,23l63.38,0l0,-146.49z" fill="#E64122" id="svg_15"/>
  <path d="m234.1,325.82c-1.34,0 -2.68,-0.14 -4,-0.44l-142.69,-31.83c-9.9,-2.21 -16.14,-12.03 -13.93,-21.94c2.21,-9.9 12.03,-16.14 21.93,-13.93l138.43,30.88l132.89,-33.57c9.84,-2.49 19.83,3.47 22.32,13.31s-3.48,19.84 -13.31,22.32l-137.14,34.64c-1.47,0.37 -2.98,0.56 -4.5,0.56z" fill="#212A2D" id="svg_16"/>
  <path d="m234.1,325.82c-1.34,0 -2.68,-0.14 -4,-0.44l-142.69,-31.83c-9.9,-2.21 -16.14,-12.03 -13.93,-21.94c2.21,-9.9 12.03,-16.14 21.93,-13.93l138.43,30.88l22.16,-5.6l0,37.91l-17.4,4.39c-1.47,0.37 -2.98,0.56 -4.5,0.56z" fill="#2E373A" id="svg_17"/>
  <path d="m420.58,427.07c-8.03,0 -15.41,-5.3 -17.69,-13.42l-49.01,-174.96l-35.25,-6.33c-9.99,-1.79 -16.63,-11.34 -14.84,-21.33c1.79,-9.99 11.36,-16.63 21.34,-14.84l46.58,8.36c6.93,1.24 12.55,6.35 14.45,13.13l52.12,186.06c2.74,9.77 -2.96,19.91 -12.73,22.65c-1.66,0.46 -3.33,0.68 -4.97,0.68z" fill="#BA2B11" id="svg_18"/>
  <path d="m389.62,366.26l-35.74,-127.57l-35.25,-6.33c-9.99,-1.79 -16.63,-11.34 -14.84,-21.33c1.79,-9.99 11.36,-16.63 21.34,-14.84l46.58,8.36c6.93,1.24 12.55,6.35 14.45,13.13l3.45,12.33l0.01,136.25z" fill="#E64122" id="svg_19"/>
 </g>
</svg>