<?xml version="1.0" encoding="utf-8"?>
<!-- Uploaded to: SVG Repo, www.svgrepo.com, Generator: SVG Repo Mixer Tools -->
<svg width="800px" height="800px" viewBox="0 0 1024 1024" class="icon"  version="1.1" xmlns="http://www.w3.org/2000/svg"><path d="M616.96 672V176.64a85.76 85.76 0 0 0-171.52 0v495.36c-29.44 24.32-48.64 61.44-48.64 103.68 0 74.24 60.16 134.4 134.4 134.4S665.6 849.92 665.6 775.68c0-42.24-19.2-79.36-48.64-103.68z" fill="#F7E6A3" /><path d="M531.2 922.88c-80.64 0-147.2-66.56-147.2-147.2 0-42.24 17.92-81.92 48.64-110.08V176.64c0-53.76 43.52-98.56 98.56-98.56s98.56 43.52 98.56 98.56V665.6c30.72 28.16 48.64 67.84 48.64 110.08 0 80.64-66.56 147.2-147.2 147.2z m0-819.2c-39.68 0-72.96 33.28-72.96 72.96v495.36c0 3.84-1.28 7.68-5.12 10.24-28.16 23.04-44.8 57.6-44.8 93.44 0 66.56 55.04 121.6 121.6 121.6s121.6-55.04 121.6-121.6c0-35.84-16.64-70.4-44.8-93.44-2.56-2.56-5.12-6.4-5.12-10.24V176.64c2.56-39.68-30.72-72.96-70.4-72.96z" fill="#231C1C" /><path d="M568.32 711.68V408.32c0-20.48-16.64-37.12-37.12-37.12-20.48 0-37.12 16.64-37.12 37.12v303.36c-21.76 12.8-37.12 35.84-37.12 64 0 40.96 33.28 72.96 72.96 72.96 40.96 0 72.96-33.28 72.96-72.96 1.28-26.88-12.8-51.2-34.56-64z" fill="#E24F32" /><path d="M531.2 861.44c-47.36 0-85.76-38.4-85.76-85.76 0-28.16 14.08-55.04 37.12-70.4V408.32c0-26.88 21.76-49.92 49.92-49.92 26.88 0 49.92 21.76 49.92 49.92v296.96c23.04 16.64 37.12 42.24 37.12 70.4-2.56 47.36-40.96 85.76-88.32 85.76z m0-476.16c-12.8 0-24.32 10.24-24.32 24.32v303.36c0 5.12-2.56 8.96-6.4 11.52-19.2 10.24-30.72 30.72-30.72 52.48 0 33.28 26.88 60.16 60.16 60.16s60.16-26.88 60.16-60.16c0-21.76-11.52-40.96-30.72-52.48-3.84-2.56-6.4-6.4-6.4-11.52V408.32c2.56-12.8-8.96-23.04-21.76-23.04zM531.2 188.16h85.76v25.6h-85.76z" fill="#231C1C" /><path d="M531.2 359.68h85.76v25.6h-85.76zM555.52 273.92h61.44v25.6h-61.44z" fill="#231C1C" /><path d="M555.52 445.44h61.44v25.6h-61.44z" fill="#231C1C" /><path d="M531.2 529.92h85.76v25.6h-85.76z" fill="#231C1C" /></svg>